<?xml version="1.0" encoding="UTF-8" standalone="no"?>
<!-- Created with Inkscape (http://www.inkscape.org/) -->
<svg xmlns:inkscape="http://www.inkscape.org/namespaces/inkscape" xmlns:rdf="http://www.w3.org/1999/02/22-rdf-syntax-ns#" xmlns="http://www.w3.org/2000/svg" xmlns:xlink="http://www.w3.org/1999/xlink" xmlns:ns1="http://sozi.baierouge.fr" xmlns:cc="http://creativecommons.org/ns#" xmlns:sodipodi="http://sodipodi.sourceforge.net/DTD/sodipodi-0.dtd" xmlns:dc="http://purl.org/dc/elements/1.1/" id="svg2" version="1.1" viewBox="0 0 250.50854 946.43848" inkscape:version="0.91 r13725">
  <g id="g13447" transform="translate(-194.54 -55.696)">
    <g id="g4041" transform="matrix(.8 0 0 .8 194.7 52.622)">
      <path id="path3828" style="fill:#000000" d="m91.312 42.406c-13.144 4.4758-13.159 49.089-5 55.656 3.8095 3.0661 2.9219 4.8305 1.7812 15.219-5.0275 45.788-11.61 115.42-14.812 179-3.765 74.74 5.553 126.78-18.343 170.4-21.481 27.3-54.842 50.94-54.938 89.65-0.4691 188.48 0 376.96 0 565.44 0 16.126 20.767 41.133 51.406 52.731 30.64 11.599 69.549 16.388 104.96 16.378 35.419-0.01 74.343-4.843 104.98-16.44 30.636-11.597 51.375-36.607 51.375-52.731 0-188.46 0.46903-376.92 0-565.38-0.0963-38.704-33.428-62.33-54.906-89.625-23.894-43.617-14.579-95.663-18.344-170.41-3.2019-63.572-9.7856-133.19-14.812-178.97-1.1405-10.387-2.0278-12.153 1.7812-15.219 8.1581-6.5661 8.1423-51.181-5-55.656-14.226-4.8443-44.246-4.2862-65.064-4.3175-20.818-0.03124-50.833-0.58997-65.061 4.255z"/>
      <g id="g4036" style="fill:#c8ab37" transform="translate(0 4.0654)">
        <path id="path3932" style="fill-rule:evenodd;fill:#c8ab37" d="m166.53-0.21875c-7.4034 0.035279-14.797 0.26908-22.188 0.59375-5.475 0.24053-10.941 0.72822-16.375 1.4062-5.4342 0.67803-10.858 1.5449-16.25 2.5312-3.9168 0.75147-8.065 0.944-12.094 1.5625-2.0144 0.30925-4.0096 0.73001-5.9062 1.375-1.8967 0.64499-3.6931 1.5233-5.375 2.75-1.1897 0.89228-2.1611 1.9769-2.9375 3.1875-0.77638 1.2106-1.3578 2.5387-1.8438 3.9375-0.97192 2.7976-1.5147 5.8562-2.0625 8.625-0.17096 1.7339-0.4996 3.4356-0.90625 5.125s-0.86184 3.3515-1.3125 5.0312-0.88452 3.3578-1.1875 5.0625-0.47387 3.4544-0.4375 5.2188c0.13431 0.75761 0.35033 1.3881 0.65625 1.9375 0.30592 0.54937 0.68505 1.0145 1.125 1.375 0.43995 0.36046 0.93236 0.6216 1.4688 0.8125 0.53639 0.1909 1.1235 0.30308 1.7188 0.34375 1.1905 0.08134 2.4558-0.12772 3.6562-0.53125s2.3403-1.0163 3.25-1.75c1.1456 1.0063 2.4159 1.7673 3.75 2.2812 1.3341 0.51397 2.7372 0.78686 4.1562 0.84375s2.8497-0.10376 4.25-0.46875 2.7532-0.93586 4.0312-1.6875c0.68826-0.38844 1.3461-0.60072 2-0.6875 0.65394-0.08678 1.3069-0.03429 1.9375 0.09375 1.2612 0.25608 2.4851 0.8432 3.7188 1.4375 1.2336 0.5943 2.4874 1.1997 3.7812 1.4375 0.64692 0.11889 1.2903 0.13175 1.9688 0.03125 0.67844-0.1005 1.3728-0.31202 2.0938-0.71875 1.1919-0.44917 2.4164-0.88103 3.6562-1.2188 1.2398-0.33772 2.493-0.60005 3.75-0.71875s2.5377-0.08288 3.7812 0.125 2.4568 0.60796 3.6562 1.25c0.70793 0.50992 1.4253 0.8287 2.1562 1.0312 0.73099 0.20255 1.4725 0.26669 2.2188 0.25 1.4924-0.03338 3.0248-0.3997 4.5312-0.78125 1.5065-0.38155 2.9795-0.75661 4.4375-0.78125 0.729-0.01232 1.4511 0.04089 2.1562 0.25 0.70516 0.2091 1.4202 0.57509 2.0938 1.0938 1.5229 0.69512 3.0083 1.0525 4.5 1.1562s2.988-0.06385 4.4375-0.375 2.8534-0.79431 4.25-1.3438c1.3966-0.54944 2.761-1.1701 4.0938-1.7812 1.3362 0.16293 2.6885 0.69784 4.0312 1.3125s2.6918 1.3063 4.0312 1.875c1.3395 0.56866 2.6736 1.0063 4 1.0312 0.66319 0.01246 1.3107-0.06446 1.9688-0.28125 0.65808-0.21679 1.317-0.58548 1.9688-1.0938 0.53543-0.65518 1.0897-1.1695 1.6562-1.5625 0.56653-0.39303 1.1578-0.66623 1.75-0.84375 1.1844-0.35504 2.4015-0.32102 3.6562-0.09375 2.5095 0.45455 5.1251 1.7042 7.6562 2.25 1.3927-0.45352 2.7544-0.78395 4.0938-1s2.6522-0.30748 3.9688-0.28125c1.3165 0.02623 2.6447 0.16418 3.9688 0.4375s2.6379 0.66229 4 1.1875c2.8496-0.94239 6.1154-1.4962 9.1875-2.375 1.536-0.4394 3.036-0.93589 4.4062-1.625 1.3703-0.68911 2.5993-1.5716 3.6562-2.6875 0.23006-1.8876 0.19296-3.7646-0.0625-5.625s-0.72416-3.7046-1.2812-5.5312c-1.1142-3.6533-2.6264-7.2088-3.8438-10.688-1.2508-2.8912-1.8805-6.3086-2.9688-9.4062-0.54413-1.5488-1.2028-3.0255-2.125-4.3125-0.46-0.643-0.99-1.242-1.6-1.7808-0.60795-0.53882-1.3041-1.0295-2.0938-1.4375-2.4794-1.2575-5.0493-2.2081-7.6875-2.9688-2.6382-0.76069-5.3311-1.3353-8.0625-1.75-2.7314-0.41469-5.491-0.68673-8.25-0.90625s-5.5291-0.35608-8.25-0.53125c-7.3882-0.47564-14.784-0.66028-22.188-0.625z"/>
        <path id="path2991" style="fill:#c8ab37" d="m229.74 25.488c-2.51-5.783-2.45-13.65-8.77-16.914-9.91-5.0303-21.36-5.4824-32.25-6.1831-14.77-0.9513-29.61-0.6592-44.39-0.0098-10.95 0.481-21.82-0.0337-32.6 1.9389-7.84 1.503-16.672 0.7721-23.4 5.6789-4.759 3.5691-5.719 10.206-6.815 15.744-0.68385 6.9356-4.0199 13.377-3.8745 20.434 1.0745 6.0609 8.2418 5.1485 11.88 2.2138 4.5825 4.0251 11.087 3.9709 16.199 0.96436 5.5061-3.1075 9.7383 4.8276 15.506 1.5737 4.7677-1.7967 10.041-3.132 14.839-0.56385 5.6635 4.0794 12.19-3.0873 17.578 1.062 6.0917 2.7805 11.977 0.12336 17.308-2.3213 5.3448 0.65172 10.781 6.9082 15.995 2.8421 4.2835-5.2414 9.6485-1.3483 14.711-0.2567 5.5708-1.8141 10.593-1.7476 16.042 0.35322 5.6992-1.8848 13.024-2.2258 17.252-6.6893 0.92026-7.5503-2.7793-12.909-5.214-19.867z"/>
      </g>
      <path id="path12917" style="stroke:#000000;stroke-width:1px;fill:#fcfce5" d="m-280 1487.4s58.746 9.1389 154.22 9.1389c95.477 0 154.74-12.322 154.74-12.322v403.39s-67.221 33.804-154.74 33.804c-87.52 0-154.22-33.804-154.22-33.804z" transform="translate(281.74 -838.8)"/>
    </g>
  </g>
  <metadata>
    <rdf:RDF>
      <cc:Work>
        <dc:format>image/svg+xml</dc:format>
        <dc:type rdf:resource="http://purl.org/dc/dcmitype/StillImage"/>
        <cc:license rdf:resource="http://creativecommons.org/licenses/publicdomain/"/>
        <dc:publisher>
          <cc:Agent rdf:about="http://openclipart.org/">
            <dc:title>Openclipart</dc:title>
          </cc:Agent>
        </dc:publisher>
      </cc:Work>
      <cc:License rdf:about="http://creativecommons.org/licenses/publicdomain/">
        <cc:permits rdf:resource="http://creativecommons.org/ns#Reproduction"/>
        <cc:permits rdf:resource="http://creativecommons.org/ns#Distribution"/>
        <cc:permits rdf:resource="http://creativecommons.org/ns#DerivativeWorks"/>
      </cc:License>
    </rdf:RDF>
  </metadata>
</svg>
